<svg width="122" height="48" viewBox="0 0 122 48" fill="none" xmlns="http://www.w3.org/2000/svg">
<g clip-path="url(#clip0_44_40)">
<rect y="4" width="122" height="40" rx="20" fill="#72333F"/>
<path d="M19.3334 30.6667C18.875 30.6667 18.4827 30.5035 18.1563 30.1771C17.8299 29.8507 17.6667 29.4583 17.6667 29V19C17.6667 18.5417 17.8299 18.1493 18.1563 17.8229C18.4827 17.4965 18.875 17.3333 19.3334 17.3333H24.3334L26 19H32.6667C33.125 19 33.5174 19.1632 33.8438 19.4896C34.1702 19.816 34.3334 20.2083 34.3334 20.6667V29C34.3334 29.4583 34.1702 29.8507 33.8438 30.1771C33.5174 30.5035 33.125 30.6667 32.6667 30.6667H19.3334ZM19.3334 29H32.6667V20.6667H25.3125L23.6459 19H19.3334V29Z" fill="#FFD9DD"/>
<path d="M50.8906 25.7598H52.5996C52.5449 26.4115 52.3626 26.9925 52.0527 27.5029C51.7428 28.0088 51.3076 28.4076 50.7471 28.6992C50.1865 28.9909 49.5052 29.1367 48.7031 29.1367C48.0879 29.1367 47.5342 29.0273 47.042 28.8086C46.5498 28.5853 46.1283 28.2708 45.7773 27.8652C45.4264 27.4551 45.1576 26.9606 44.9707 26.3818C44.7884 25.8031 44.6973 25.1559 44.6973 24.4404V23.6133C44.6973 22.8978 44.7907 22.2507 44.9775 21.6719C45.1689 21.0931 45.4424 20.5986 45.7979 20.1885C46.1533 19.7738 46.5794 19.457 47.0762 19.2383C47.5775 19.0195 48.1403 18.9102 48.7646 18.9102C49.5576 18.9102 50.2275 19.056 50.7744 19.3477C51.3213 19.6393 51.7451 20.0426 52.0459 20.5576C52.3512 21.0726 52.5381 21.6628 52.6064 22.3281H50.8975C50.8519 21.8997 50.7516 21.5329 50.5967 21.2275C50.4463 20.9222 50.223 20.6898 49.9268 20.5303C49.6305 20.3662 49.2432 20.2842 48.7646 20.2842C48.3727 20.2842 48.0309 20.3571 47.7393 20.5029C47.4476 20.6488 47.2038 20.863 47.0078 21.1455C46.8118 21.4281 46.6637 21.7767 46.5635 22.1914C46.4678 22.6016 46.4199 23.071 46.4199 23.5996V24.4404C46.4199 24.9417 46.4632 25.3975 46.5498 25.8076C46.641 26.2132 46.7777 26.5618 46.96 26.8535C47.1468 27.1452 47.3838 27.3708 47.6709 27.5303C47.958 27.6898 48.3021 27.7695 48.7031 27.7695C49.1908 27.7695 49.585 27.6921 49.8857 27.5371C50.1911 27.3822 50.4212 27.1566 50.5762 26.8604C50.7357 26.5596 50.8405 26.1927 50.8906 25.7598ZM58.2641 27.5166V23.9893C58.2641 23.7249 58.2162 23.4971 58.1205 23.3057C58.0248 23.1143 57.879 22.9661 57.683 22.8613C57.4916 22.7565 57.2501 22.7041 56.9584 22.7041C56.6895 22.7041 56.4571 22.7497 56.2611 22.8408C56.0652 22.932 55.9125 23.055 55.8031 23.21C55.6938 23.3649 55.6391 23.5404 55.6391 23.7363H53.9984C53.9984 23.4447 54.0691 23.1621 54.2104 22.8887C54.3516 22.6152 54.5567 22.3714 54.8256 22.1572C55.0945 21.943 55.4158 21.7744 55.7895 21.6514C56.1632 21.5283 56.5824 21.4668 57.0473 21.4668C57.6033 21.4668 58.0954 21.5602 58.5238 21.7471C58.9568 21.9339 59.2963 22.2165 59.5424 22.5947C59.793 22.9684 59.9184 23.4378 59.9184 24.0029V27.291C59.9184 27.6283 59.9411 27.9313 59.9867 28.2002C60.0368 28.4645 60.1075 28.6947 60.1986 28.8906V29H58.5102C58.4327 28.8223 58.3712 28.5967 58.3256 28.3232C58.2846 28.0452 58.2641 27.7764 58.2641 27.5166ZM58.5033 24.502L58.517 25.5205H57.3344C57.029 25.5205 56.7602 25.5501 56.5277 25.6094C56.2953 25.6641 56.1016 25.7461 55.9467 25.8555C55.7917 25.9648 55.6755 26.097 55.598 26.252C55.5206 26.4069 55.4818 26.5824 55.4818 26.7783C55.4818 26.9743 55.5274 27.1543 55.6186 27.3184C55.7097 27.4779 55.8419 27.6032 56.015 27.6943C56.1928 27.7855 56.407 27.8311 56.6576 27.8311C56.9949 27.8311 57.2888 27.7627 57.5395 27.626C57.7947 27.4847 57.9952 27.3138 58.141 27.1133C58.2868 26.9082 58.3643 26.7145 58.3734 26.5322L58.9066 27.2637C58.852 27.4505 58.7585 27.651 58.6264 27.8652C58.4942 28.0794 58.321 28.2845 58.1068 28.4805C57.8972 28.6719 57.6443 28.8291 57.348 28.9521C57.0564 29.0752 56.7191 29.1367 56.3363 29.1367C55.8533 29.1367 55.4226 29.041 55.0443 28.8496C54.6661 28.6536 54.3699 28.3916 54.1557 28.0635C53.9415 27.7308 53.8344 27.3548 53.8344 26.9355C53.8344 26.5436 53.9073 26.1973 54.0531 25.8965C54.2035 25.5911 54.4223 25.3359 54.7094 25.1309C55.001 24.9258 55.3565 24.7708 55.7758 24.666C56.1951 24.5566 56.6736 24.502 57.2113 24.502H58.5033ZM65.1316 21.6035V22.8066H60.9617V21.6035H65.1316ZM62.1648 19.792H63.8123V26.9561C63.8123 27.1839 63.8442 27.3594 63.908 27.4824C63.9764 27.6009 64.0698 27.6807 64.1883 27.7217C64.3068 27.7627 64.4458 27.7832 64.6053 27.7832C64.7192 27.7832 64.8286 27.7764 64.9334 27.7627C65.0382 27.749 65.1225 27.7354 65.1863 27.7217L65.1932 28.9795C65.0564 29.0205 64.8969 29.057 64.7146 29.0889C64.5369 29.1208 64.3318 29.1367 64.0994 29.1367C63.7212 29.1367 63.3862 29.0706 63.0945 28.9385C62.8029 28.8018 62.575 28.5807 62.4109 28.2754C62.2469 27.9701 62.1648 27.5645 62.1648 27.0586V19.792ZM69.7639 29.1367C69.217 29.1367 68.7225 29.0479 68.2805 28.8701C67.843 28.6878 67.4693 28.4349 67.1594 28.1113C66.854 27.7878 66.6193 27.4072 66.4553 26.9697C66.2912 26.5322 66.2092 26.0605 66.2092 25.5547V25.2812C66.2092 24.7025 66.2935 24.1784 66.4621 23.709C66.6307 23.2396 66.8654 22.8385 67.1662 22.5059C67.467 22.1686 67.8225 21.9111 68.2326 21.7334C68.6428 21.5557 69.0871 21.4668 69.5656 21.4668C70.0943 21.4668 70.5568 21.5557 70.9533 21.7334C71.3498 21.9111 71.6779 22.1618 71.9377 22.4854C72.202 22.8044 72.398 23.1849 72.5256 23.627C72.6577 24.069 72.7238 24.5566 72.7238 25.0898V25.7939H67.009V24.6113H71.0969V24.4814C71.0878 24.1852 71.0285 23.9072 70.9191 23.6475C70.8143 23.3877 70.6525 23.1781 70.4338 23.0186C70.215 22.859 69.9234 22.7793 69.5588 22.7793C69.2854 22.7793 69.0415 22.8385 68.8273 22.957C68.6177 23.071 68.4423 23.2373 68.301 23.4561C68.1597 23.6748 68.0503 23.9391 67.9729 24.249C67.8999 24.5544 67.8635 24.8984 67.8635 25.2812V25.5547C67.8635 25.8783 67.9068 26.179 67.9934 26.457C68.0845 26.7305 68.2167 26.9697 68.3898 27.1748C68.563 27.3799 68.7727 27.5417 69.0187 27.6602C69.2648 27.7741 69.5451 27.8311 69.8596 27.8311C70.2561 27.8311 70.6092 27.7513 70.9191 27.5918C71.229 27.4323 71.4979 27.2067 71.7258 26.915L72.5939 27.7559C72.4344 27.9883 72.2271 28.2116 71.9719 28.4258C71.7167 28.6354 71.4045 28.8063 71.0354 28.9385C70.6708 29.0706 70.2469 29.1367 69.7639 29.1367ZM78.8463 21.6035H80.3434V28.7949C80.3434 29.4603 80.2021 30.0254 79.9195 30.4902C79.637 30.9551 79.2428 31.3083 78.7369 31.5498C78.2311 31.7959 77.6454 31.9189 76.9801 31.9189C76.6975 31.9189 76.3831 31.8779 76.0367 31.7959C75.6949 31.7139 75.3622 31.5817 75.0387 31.3994C74.7197 31.2217 74.4531 30.987 74.2389 30.6953L75.0113 29.7246C75.2757 30.0391 75.5673 30.2692 75.8863 30.415C76.2053 30.5609 76.5403 30.6338 76.8912 30.6338C77.2695 30.6338 77.5908 30.5632 77.8551 30.4219C78.124 30.2852 78.3313 30.0824 78.4771 29.8135C78.623 29.5446 78.6959 29.2165 78.6959 28.8291V23.2783L78.8463 21.6035ZM73.8219 25.3838V25.2402C73.8219 24.6797 73.8902 24.1693 74.027 23.709C74.1637 23.2441 74.3596 22.8454 74.6148 22.5127C74.8701 22.1755 75.1799 21.918 75.5445 21.7402C75.9091 21.5579 76.3215 21.4668 76.7818 21.4668C77.2604 21.4668 77.6682 21.5534 78.0055 21.7266C78.3473 21.8997 78.6321 22.1481 78.86 22.4717C79.0878 22.7907 79.2656 23.1735 79.3932 23.6201C79.5253 24.0622 79.6233 24.5544 79.6871 25.0967V25.5547C79.6279 26.0833 79.5276 26.5664 79.3863 27.0039C79.2451 27.4414 79.0582 27.8197 78.8258 28.1387C78.5934 28.4577 78.3062 28.7038 77.9645 28.877C77.6272 29.0501 77.2285 29.1367 76.7682 29.1367C76.317 29.1367 75.9091 29.0433 75.5445 28.8564C75.1845 28.6696 74.8746 28.4076 74.6148 28.0703C74.3596 27.7331 74.1637 27.3366 74.027 26.8809C73.8902 26.4206 73.8219 25.9215 73.8219 25.3838ZM75.4693 25.2402V25.3838C75.4693 25.721 75.5012 26.0355 75.565 26.3271C75.6334 26.6188 75.7359 26.8763 75.8727 27.0996C76.0139 27.3184 76.1917 27.4915 76.4059 27.6191C76.6246 27.7422 76.8821 27.8037 77.1783 27.8037C77.5657 27.8037 77.8824 27.7217 78.1285 27.5576C78.3792 27.3936 78.5706 27.1725 78.7027 26.8945C78.8395 26.612 78.9352 26.2975 78.9898 25.9512V24.7139C78.9625 24.445 78.9055 24.1943 78.8189 23.9619C78.7369 23.7295 78.6253 23.5267 78.484 23.3535C78.3427 23.1758 78.165 23.0391 77.9508 22.9434C77.7366 22.8431 77.4837 22.793 77.192 22.793C76.8958 22.793 76.6383 22.8568 76.4195 22.9844C76.2008 23.112 76.0208 23.2874 75.8795 23.5107C75.7428 23.734 75.6402 23.9938 75.5719 24.29C75.5035 24.5863 75.4693 24.903 75.4693 25.2402ZM81.8379 25.3838V25.2266C81.8379 24.6934 81.9154 24.1989 82.0703 23.7432C82.2253 23.2829 82.4486 22.8841 82.7402 22.5469C83.0365 22.2051 83.3965 21.9408 83.8203 21.7539C84.2487 21.5625 84.7318 21.4668 85.2695 21.4668C85.8118 21.4668 86.2949 21.5625 86.7188 21.7539C87.1471 21.9408 87.5094 22.2051 87.8057 22.5469C88.1019 22.8841 88.3275 23.2829 88.4824 23.7432C88.6374 24.1989 88.7148 24.6934 88.7148 25.2266V25.3838C88.7148 25.917 88.6374 26.4115 88.4824 26.8672C88.3275 27.3229 88.1019 27.7217 87.8057 28.0635C87.5094 28.4007 87.1494 28.665 86.7256 28.8564C86.3018 29.0433 85.821 29.1367 85.2832 29.1367C84.7409 29.1367 84.2555 29.0433 83.8271 28.8564C83.4033 28.665 83.0433 28.4007 82.7471 28.0635C82.4508 27.7217 82.2253 27.3229 82.0703 26.8672C81.9154 26.4115 81.8379 25.917 81.8379 25.3838ZM83.4854 25.2266V25.3838C83.4854 25.7165 83.5195 26.0309 83.5879 26.3271C83.6562 26.6234 83.7633 26.8831 83.9092 27.1064C84.055 27.3298 84.2419 27.5052 84.4697 27.6328C84.6976 27.7604 84.9688 27.8242 85.2832 27.8242C85.5885 27.8242 85.8529 27.7604 86.0762 27.6328C86.304 27.5052 86.4909 27.3298 86.6367 27.1064C86.7826 26.8831 86.8896 26.6234 86.958 26.3271C87.0309 26.0309 87.0674 25.7165 87.0674 25.3838V25.2266C87.0674 24.8984 87.0309 24.5885 86.958 24.2969C86.8896 24.0007 86.7803 23.7386 86.6299 23.5107C86.484 23.2829 86.2972 23.1051 86.0693 22.9775C85.846 22.8454 85.5794 22.7793 85.2695 22.7793C84.9596 22.7793 84.6908 22.8454 84.4629 22.9775C84.2396 23.1051 84.055 23.2829 83.9092 23.5107C83.7633 23.7386 83.6562 24.0007 83.5879 24.2969C83.5195 24.5885 83.4854 24.8984 83.4854 25.2266ZM91.85 23.0117V29H90.2025V21.6035H91.7748L91.85 23.0117ZM94.1127 21.5557L94.099 23.0869C93.9988 23.0687 93.8894 23.055 93.7709 23.0459C93.657 23.0368 93.543 23.0322 93.4291 23.0322C93.1465 23.0322 92.8982 23.0732 92.684 23.1553C92.4698 23.2327 92.2898 23.3467 92.1439 23.4971C92.0027 23.6429 91.8933 23.8206 91.8158 24.0303C91.7383 24.2399 91.6928 24.4746 91.6791 24.7344L91.3031 24.7617C91.3031 24.2969 91.3487 23.8662 91.4398 23.4697C91.531 23.0732 91.6677 22.7246 91.85 22.4238C92.0368 22.123 92.2693 21.8883 92.5473 21.7197C92.8298 21.5511 93.1557 21.4668 93.5248 21.4668C93.6251 21.4668 93.7322 21.4759 93.8461 21.4941C93.9646 21.5124 94.0534 21.5329 94.1127 21.5557ZM97.0291 21.6035V29H95.3816V21.6035H97.0291ZM95.3953 20.6191L96.7283 18.5615H98.5877L96.7283 20.6191H95.3953ZM103.179 27.5166V23.9893C103.179 23.7249 103.131 23.4971 103.035 23.3057C102.94 23.1143 102.794 22.9661 102.598 22.8613C102.406 22.7565 102.165 22.7041 101.873 22.7041C101.604 22.7041 101.372 22.7497 101.176 22.8408C100.98 22.932 100.827 23.055 100.718 23.21C100.609 23.3649 100.554 23.5404 100.554 23.7363H98.9133C98.9133 23.4447 98.9839 23.1621 99.1252 22.8887C99.2665 22.6152 99.4715 22.3714 99.7404 22.1572C100.009 21.943 100.331 21.7744 100.704 21.6514C101.078 21.5283 101.497 21.4668 101.962 21.4668C102.518 21.4668 103.01 21.5602 103.439 21.7471C103.872 21.9339 104.211 22.2165 104.457 22.5947C104.708 22.9684 104.833 23.4378 104.833 24.0029V27.291C104.833 27.6283 104.856 27.9313 104.902 28.2002C104.952 28.4645 105.022 28.6947 105.113 28.8906V29H103.425C103.348 28.8223 103.286 28.5967 103.24 28.3232C103.199 28.0452 103.179 27.7764 103.179 27.5166ZM103.418 24.502L103.432 25.5205H102.249C101.944 25.5205 101.675 25.5501 101.443 25.6094C101.21 25.6641 101.016 25.7461 100.862 25.8555C100.707 25.9648 100.59 26.097 100.513 26.252C100.435 26.4069 100.397 26.5824 100.397 26.7783C100.397 26.9743 100.442 27.1543 100.533 27.3184C100.625 27.4779 100.757 27.6032 100.93 27.6943C101.108 27.7855 101.322 27.8311 101.572 27.8311C101.91 27.8311 102.204 27.7627 102.454 27.626C102.71 27.4847 102.91 27.3138 103.056 27.1133C103.202 26.9082 103.279 26.7145 103.288 26.5322L103.821 27.2637C103.767 27.4505 103.673 27.651 103.541 27.8652C103.409 28.0794 103.236 28.2845 103.022 28.4805C102.812 28.6719 102.559 28.8291 102.263 28.9521C101.971 29.0752 101.634 29.1367 101.251 29.1367C100.768 29.1367 100.337 29.041 99.9592 28.8496C99.5809 28.6536 99.2847 28.3916 99.0705 28.0635C98.8563 27.7308 98.7492 27.3548 98.7492 26.9355C98.7492 26.5436 98.8221 26.1973 98.968 25.8965C99.1184 25.5911 99.3371 25.3359 99.6242 25.1309C99.9159 24.9258 100.271 24.7708 100.691 24.666C101.11 24.5566 101.588 24.502 102.126 24.502H103.418Z" fill="#FFD9DD"/>
</g>
<defs>
<clipPath id="clip0_44_40">
<rect y="4" width="122" height="40" rx="20" fill="white"/>
</clipPath>
</defs>
</svg>
