<svg width="112" height="48" viewBox="0 0 112 48" fill="none" xmlns="http://www.w3.org/2000/svg">
<g clip-path="url(#clip0_17_1303)">
<rect y="4" width="112" height="40" rx="20" fill="#72333F"/>
<path d="M33.7084 27.0833V18.9896C33.7084 17.497 32.503 16.2917 31.0104 16.2917H20.9896C19.497 16.2917 18.2917 17.497 18.2917 18.9896V29.0104C18.2917 30.503 19.497 31.7083 20.9896 31.7083H29.0834L33.7084 27.0833ZM20.9896 30.1667C20.3519 30.1667 19.8334 29.6481 19.8334 29.0104V18.9896C19.8334 18.3519 20.3519 17.8333 20.9896 17.8333H31.0104C31.6481 17.8333 32.1667 18.3519 32.1667 18.9896V26.3125H31.0104C29.5178 26.3125 28.3125 27.5178 28.3125 29.0104V30.1667H20.9896ZM24.2762 22.2901C24.0729 21.5754 23.3301 21.1549 22.6154 21.3581C21.9006 21.5614 21.4801 22.3042 21.6834 23.0259C21.7394 23.2222 21.8375 23.3973 21.9637 23.5445L24.3042 22.8858C24.3392 22.6896 24.3322 22.4864 24.2762 22.2901ZM29.0974 20.9307C28.9012 20.2159 28.1513 19.7955 27.4366 19.9987C26.7218 20.2019 26.3013 20.9447 26.5046 21.6665C26.5606 21.8627 26.6587 22.0379 26.7849 22.185L29.1254 21.5263C29.1604 21.3301 29.1534 21.1269 29.0974 20.9307ZM29.7841 23.3413L22.3561 25.4366C23.3582 26.761 25.096 27.4057 26.7849 26.9292C28.4737 26.4526 29.6159 24.9881 29.7841 23.3413Z" fill="#FFD9DD"/>
<path d="M50.8906 25.7598H52.5996C52.5449 26.4115 52.3626 26.9925 52.0527 27.5029C51.7428 28.0088 51.3076 28.4076 50.7471 28.6992C50.1865 28.9909 49.5052 29.1367 48.7031 29.1367C48.0879 29.1367 47.5342 29.0273 47.042 28.8086C46.5498 28.5853 46.1283 28.2708 45.7773 27.8652C45.4264 27.4551 45.1576 26.9606 44.9707 26.3818C44.7884 25.8031 44.6973 25.1559 44.6973 24.4404V23.6133C44.6973 22.8978 44.7907 22.2507 44.9775 21.6719C45.1689 21.0931 45.4424 20.5986 45.7979 20.1885C46.1533 19.7738 46.5794 19.457 47.0762 19.2383C47.5775 19.0195 48.1403 18.9102 48.7646 18.9102C49.5576 18.9102 50.2275 19.056 50.7744 19.3477C51.3213 19.6393 51.7451 20.0426 52.0459 20.5576C52.3512 21.0726 52.5381 21.6628 52.6064 22.3281H50.8975C50.8519 21.8997 50.7516 21.5329 50.5967 21.2275C50.4463 20.9222 50.223 20.6898 49.9268 20.5303C49.6305 20.3662 49.2432 20.2842 48.7646 20.2842C48.3727 20.2842 48.0309 20.3571 47.7393 20.5029C47.4476 20.6488 47.2038 20.863 47.0078 21.1455C46.8118 21.4281 46.6637 21.7767 46.5635 22.1914C46.4678 22.6016 46.4199 23.071 46.4199 23.5996V24.4404C46.4199 24.9417 46.4632 25.3975 46.5498 25.8076C46.641 26.2132 46.7777 26.5618 46.96 26.8535C47.1468 27.1452 47.3838 27.3708 47.6709 27.5303C47.958 27.6898 48.3021 27.7695 48.7031 27.7695C49.1908 27.7695 49.585 27.6921 49.8857 27.5371C50.1911 27.3822 50.4212 27.1566 50.5762 26.8604C50.7357 26.5596 50.8405 26.1927 50.8906 25.7598ZM55.8578 18.5V29H54.2035V18.5H55.8578ZM59.5262 21.6035V29H57.8719V21.6035H59.5262ZM57.7625 19.6621C57.7625 19.4115 57.8445 19.2041 58.0086 19.04C58.1772 18.8714 58.4096 18.7871 58.7059 18.7871C58.9975 18.7871 59.2277 18.8714 59.3963 19.04C59.5649 19.2041 59.6492 19.4115 59.6492 19.6621C59.6492 19.9082 59.5649 20.1133 59.3963 20.2773C59.2277 20.4414 58.9975 20.5234 58.7059 20.5234C58.4096 20.5234 58.1772 20.4414 58.0086 20.2773C57.8445 20.1133 57.7625 19.9082 57.7625 19.6621ZM64.6916 29.1367C64.1447 29.1367 63.6503 29.0479 63.2082 28.8701C62.7707 28.6878 62.397 28.4349 62.0871 28.1113C61.7818 27.7878 61.5471 27.4072 61.383 26.9697C61.2189 26.5322 61.1369 26.0605 61.1369 25.5547V25.2812C61.1369 24.7025 61.2212 24.1784 61.3898 23.709C61.5585 23.2396 61.7932 22.8385 62.0939 22.5059C62.3947 22.1686 62.7502 21.9111 63.1604 21.7334C63.5705 21.5557 64.0148 21.4668 64.4934 21.4668C65.022 21.4668 65.4846 21.5557 65.8811 21.7334C66.2775 21.9111 66.6057 22.1618 66.8654 22.4854C67.1298 22.8044 67.3257 23.1849 67.4533 23.627C67.5855 24.069 67.6516 24.5566 67.6516 25.0898V25.7939H61.9367V24.6113H66.0246V24.4814C66.0155 24.1852 65.9562 23.9072 65.8469 23.6475C65.7421 23.3877 65.5803 23.1781 65.3615 23.0186C65.1428 22.859 64.8511 22.7793 64.4865 22.7793C64.2131 22.7793 63.9693 22.8385 63.7551 22.957C63.5454 23.071 63.37 23.2373 63.2287 23.4561C63.0874 23.6748 62.9781 23.9391 62.9006 24.249C62.8277 24.5544 62.7912 24.8984 62.7912 25.2812V25.5547C62.7912 25.8783 62.8345 26.179 62.9211 26.457C63.0122 26.7305 63.1444 26.9697 63.3176 27.1748C63.4908 27.3799 63.7004 27.5417 63.9465 27.6602C64.1926 27.7741 64.4729 27.8311 64.7873 27.8311C65.1838 27.8311 65.537 27.7513 65.8469 27.5918C66.1568 27.4323 66.4257 27.2067 66.6535 26.915L67.5217 27.7559C67.3622 27.9883 67.1548 28.2116 66.8996 28.4258C66.6444 28.6354 66.3322 28.8063 65.9631 28.9385C65.5985 29.0706 65.1747 29.1367 64.6916 29.1367ZM70.6705 23.1826V29H69.023V21.6035H70.5748L70.6705 23.1826ZM70.3766 25.0283L69.8434 25.0215C69.8479 24.4974 69.9208 24.0166 70.0621 23.5791C70.2079 23.1416 70.4085 22.7656 70.6637 22.4512C70.9234 22.1367 71.2333 21.8952 71.5934 21.7266C71.9534 21.5534 72.3544 21.4668 72.7965 21.4668C73.152 21.4668 73.4732 21.5169 73.7604 21.6172C74.052 21.7129 74.3004 21.8701 74.5055 22.0889C74.7151 22.3076 74.8746 22.5924 74.984 22.9434C75.0934 23.2897 75.148 23.7158 75.148 24.2217V29H73.4937V24.2148C73.4937 23.8594 73.4413 23.5791 73.3365 23.374C73.2363 23.1644 73.0882 23.0163 72.8922 22.9297C72.7008 22.8385 72.4615 22.793 72.1744 22.793C71.8919 22.793 71.6389 22.8522 71.4156 22.9707C71.1923 23.0892 71.0032 23.251 70.8482 23.4561C70.6979 23.6611 70.5816 23.8981 70.4996 24.167C70.4176 24.4359 70.3766 24.723 70.3766 25.0283ZM80.3203 21.6035V22.8066H76.1504V21.6035H80.3203ZM77.3535 19.792H79.001V26.9561C79.001 27.1839 79.0329 27.3594 79.0967 27.4824C79.165 27.6009 79.2585 27.6807 79.377 27.7217C79.4954 27.7627 79.6344 27.7832 79.7939 27.7832C79.9079 27.7832 80.0173 27.7764 80.1221 27.7627C80.2269 27.749 80.3112 27.7354 80.375 27.7217L80.3818 28.9795C80.2451 29.0205 80.0856 29.057 79.9033 29.0889C79.7256 29.1208 79.5205 29.1367 79.2881 29.1367C78.9098 29.1367 78.5749 29.0706 78.2832 28.9385C77.9915 28.8018 77.7637 28.5807 77.5996 28.2754C77.4355 27.9701 77.3535 27.5645 77.3535 27.0586V19.792ZM84.9525 29.1367C84.4057 29.1367 83.9112 29.0479 83.4691 28.8701C83.0316 28.6878 82.6579 28.4349 82.348 28.1113C82.0427 27.7878 81.808 27.4072 81.6439 26.9697C81.4799 26.5322 81.3979 26.0605 81.3979 25.5547V25.2812C81.3979 24.7025 81.4822 24.1784 81.6508 23.709C81.8194 23.2396 82.0541 22.8385 82.3549 22.5059C82.6557 22.1686 83.0111 21.9111 83.4213 21.7334C83.8314 21.5557 84.2758 21.4668 84.7543 21.4668C85.2829 21.4668 85.7455 21.5557 86.142 21.7334C86.5385 21.9111 86.8666 22.1618 87.1264 22.4854C87.3907 22.8044 87.5867 23.1849 87.7143 23.627C87.8464 24.069 87.9125 24.5566 87.9125 25.0898V25.7939H82.1977V24.6113H86.2855V24.4814C86.2764 24.1852 86.2172 23.9072 86.1078 23.6475C86.003 23.3877 85.8412 23.1781 85.6225 23.0186C85.4037 22.859 85.112 22.7793 84.7475 22.7793C84.474 22.7793 84.2302 22.8385 84.016 22.957C83.8064 23.071 83.6309 23.2373 83.4896 23.4561C83.3484 23.6748 83.239 23.9391 83.1615 24.249C83.0886 24.5544 83.0521 24.8984 83.0521 25.2812V25.5547C83.0521 25.8783 83.0954 26.179 83.182 26.457C83.2732 26.7305 83.4053 26.9697 83.5785 27.1748C83.7517 27.3799 83.9613 27.5417 84.2074 27.6602C84.4535 27.7741 84.7338 27.8311 85.0482 27.8311C85.4447 27.8311 85.7979 27.7513 86.1078 27.5918C86.4177 27.4323 86.6866 27.2067 86.9145 26.915L87.7826 27.7559C87.6231 27.9883 87.4158 28.2116 87.1605 28.4258C86.9053 28.6354 86.5932 28.8063 86.224 28.9385C85.8594 29.0706 85.4356 29.1367 84.9525 29.1367ZM93.4471 26.9971C93.4471 26.833 93.4061 26.6849 93.324 26.5527C93.242 26.416 93.0848 26.293 92.8523 26.1836C92.6245 26.0742 92.2872 25.974 91.8406 25.8828C91.4487 25.7962 91.0887 25.6937 90.7605 25.5752C90.437 25.4521 90.159 25.304 89.9266 25.1309C89.6941 24.9577 89.5141 24.7526 89.3865 24.5156C89.2589 24.2786 89.1951 24.0052 89.1951 23.6953C89.1951 23.3945 89.2612 23.1097 89.3934 22.8408C89.5255 22.5719 89.7146 22.335 89.9607 22.1299C90.2068 21.9248 90.5053 21.763 90.8563 21.6445C91.2117 21.526 91.6082 21.4668 92.0457 21.4668C92.6655 21.4668 93.1964 21.5716 93.6385 21.7812C94.0851 21.9863 94.4269 22.2666 94.6639 22.6221C94.9008 22.973 95.0193 23.3695 95.0193 23.8115H93.3719C93.3719 23.6156 93.3217 23.4333 93.2215 23.2646C93.1258 23.0915 92.9799 22.9525 92.784 22.8477C92.588 22.7383 92.3419 22.6836 92.0457 22.6836C91.7632 22.6836 91.5285 22.7292 91.3416 22.8203C91.1593 22.9069 91.0226 23.0208 90.9314 23.1621C90.8449 23.3034 90.8016 23.4583 90.8016 23.627C90.8016 23.75 90.8243 23.8617 90.8699 23.9619C90.9201 24.0576 91.0021 24.1465 91.116 24.2285C91.2299 24.306 91.3849 24.3789 91.5809 24.4473C91.7814 24.5156 92.032 24.5817 92.3328 24.6455C92.8979 24.764 93.3833 24.9167 93.7889 25.1035C94.199 25.2858 94.5135 25.5228 94.7322 25.8145C94.951 26.1016 95.0604 26.4661 95.0604 26.9082C95.0604 27.2363 94.9897 27.5371 94.8484 27.8105C94.7117 28.0794 94.5112 28.3141 94.2469 28.5146C93.9826 28.7106 93.6658 28.8633 93.2967 28.9727C92.9321 29.082 92.5219 29.1367 92.0662 29.1367C91.3963 29.1367 90.8289 29.0182 90.3641 28.7812C89.8992 28.5397 89.546 28.2321 89.3045 27.8584C89.0675 27.4801 88.949 27.0882 88.949 26.6826H90.5418C90.56 26.988 90.6443 27.2318 90.7947 27.4141C90.9497 27.5918 91.1411 27.7217 91.3689 27.8037C91.6014 27.8812 91.8406 27.9199 92.0867 27.9199C92.3829 27.9199 92.6313 27.8812 92.8318 27.8037C93.0324 27.7217 93.185 27.6123 93.2898 27.4756C93.3947 27.3343 93.4471 27.1748 93.4471 26.9971Z" fill="#FFD9DD"/>
</g>
<defs>
<clipPath id="clip0_17_1303">
<rect y="4" width="112" height="40" rx="20" fill="white"/>
</clipPath>
</defs>
</svg>
