<svg width="113" height="48" viewBox="0 0 113 48" fill="none" xmlns="http://www.w3.org/2000/svg">
<g clip-path="url(#clip0_17_1312)">
<rect y="4" width="113" height="40" rx="20" fill="#72333F"/>
<path d="M31.8334 31.5L26 25.6667L24.0417 27.625C24.1528 27.8333 24.2292 28.0556 24.2709 28.2917C24.3125 28.5278 24.3334 28.7639 24.3334 29C24.3334 29.9167 24.007 30.7014 23.3542 31.3542C22.7014 32.0069 21.9167 32.3333 21 32.3333C20.0834 32.3333 19.2986 32.0069 18.6459 31.3542C17.9931 30.7014 17.6667 29.9167 17.6667 29C17.6667 28.0833 17.9931 27.2986 18.6459 26.6458C19.2986 25.9931 20.0834 25.6667 21 25.6667C21.2361 25.6667 21.4722 25.6875 21.7084 25.7292C21.9445 25.7708 22.1667 25.8472 22.375 25.9583L24.3334 24L22.375 22.0417C22.1667 22.1528 21.9445 22.2292 21.7084 22.2708C21.4722 22.3125 21.2361 22.3333 21 22.3333C20.0834 22.3333 19.2986 22.0069 18.6459 21.3542C17.9931 20.7014 17.6667 19.9167 17.6667 19C17.6667 18.0833 17.9931 17.2986 18.6459 16.6458C19.2986 15.9931 20.0834 15.6667 21 15.6667C21.9167 15.6667 22.7014 15.9931 23.3542 16.6458C24.007 17.2986 24.3334 18.0833 24.3334 19C24.3334 19.2361 24.3125 19.4722 24.2709 19.7083C24.2292 19.9444 24.1528 20.1667 24.0417 20.375L34.3334 30.6667V31.5H31.8334ZM28.5 23.1667L26.8334 21.5L31.8334 16.5H34.3334V17.3333L28.5 23.1667ZM21 20.6667C21.4584 20.6667 21.8507 20.5035 22.1771 20.1771C22.5035 19.8507 22.6667 19.4583 22.6667 19C22.6667 18.5417 22.5035 18.1493 22.1771 17.8229C21.8507 17.4965 21.4584 17.3333 21 17.3333C20.5417 17.3333 20.1493 17.4965 19.8229 17.8229C19.4965 18.1493 19.3334 18.5417 19.3334 19C19.3334 19.4583 19.4965 19.8507 19.8229 20.1771C20.1493 20.5035 20.5417 20.6667 21 20.6667ZM26 24.4167C26.1111 24.4167 26.2084 24.375 26.2917 24.2917C26.375 24.2083 26.4167 24.1111 26.4167 24C26.4167 23.8889 26.375 23.7917 26.2917 23.7083C26.2084 23.625 26.1111 23.5833 26 23.5833C25.8889 23.5833 25.7917 23.625 25.7084 23.7083C25.625 23.7917 25.5834 23.8889 25.5834 24C25.5834 24.1111 25.625 24.2083 25.7084 24.2917C25.7917 24.375 25.8889 24.4167 26 24.4167ZM21 30.6667C21.4584 30.6667 21.8507 30.5035 22.1771 30.1771C22.5035 29.8507 22.6667 29.4583 22.6667 29C22.6667 28.5417 22.5035 28.1493 22.1771 27.8229C21.8507 27.4965 21.4584 27.3333 21 27.3333C20.5417 27.3333 20.1493 27.4965 19.8229 27.8229C19.4965 28.1493 19.3334 28.5417 19.3334 29C19.3334 29.4583 19.4965 29.8507 19.8229 30.1771C20.1493 30.5035 20.5417 30.6667 21 30.6667Z" fill="#FFD9DD"/>
<path d="M48.792 25.2881H46.2012V23.9277H48.792C49.2432 23.9277 49.6077 23.8548 49.8857 23.709C50.1637 23.5632 50.3665 23.3626 50.4941 23.1074C50.6263 22.8477 50.6924 22.5514 50.6924 22.2188C50.6924 21.9043 50.6263 21.6104 50.4941 21.3369C50.3665 21.0589 50.1637 20.8356 49.8857 20.667C49.6077 20.4984 49.2432 20.4141 48.792 20.4141H46.7275V29H45.0117V19.0469H48.792C49.5622 19.0469 50.2161 19.1836 50.7539 19.457C51.2962 19.7259 51.7087 20.0996 51.9912 20.5781C52.2738 21.0521 52.415 21.5944 52.415 22.2051C52.415 22.8477 52.2738 23.3991 51.9912 23.8594C51.7087 24.3197 51.2962 24.6729 50.7539 24.9189C50.2161 25.165 49.5622 25.2881 48.792 25.2881ZM55.5434 23.0117V29H53.8959V21.6035H55.4682L55.5434 23.0117ZM57.8061 21.5557L57.7924 23.0869C57.6921 23.0687 57.5827 23.055 57.4643 23.0459C57.3503 23.0368 57.2364 23.0322 57.1225 23.0322C56.8399 23.0322 56.5915 23.0732 56.3773 23.1553C56.1632 23.2327 55.9831 23.3467 55.8373 23.4971C55.696 23.6429 55.5867 23.8206 55.5092 24.0303C55.4317 24.2399 55.3861 24.4746 55.3725 24.7344L54.9965 24.7617C54.9965 24.2969 55.0421 23.8662 55.1332 23.4697C55.2243 23.0732 55.3611 22.7246 55.5434 22.4238C55.7302 22.123 55.9626 21.8883 56.2406 21.7197C56.5232 21.5511 56.849 21.4668 57.2182 21.4668C57.3184 21.4668 57.4255 21.4759 57.5395 21.4941C57.6579 21.5124 57.7468 21.5329 57.8061 21.5557ZM62.0623 29.1367C61.5154 29.1367 61.021 29.0479 60.5789 28.8701C60.1414 28.6878 59.7677 28.4349 59.4578 28.1113C59.1525 27.7878 58.9178 27.4072 58.7537 26.9697C58.5896 26.5322 58.5076 26.0605 58.5076 25.5547V25.2812C58.5076 24.7025 58.5919 24.1784 58.7605 23.709C58.9292 23.2396 59.1639 22.8385 59.4646 22.5059C59.7654 22.1686 60.1209 21.9111 60.5311 21.7334C60.9412 21.5557 61.3855 21.4668 61.8641 21.4668C62.3927 21.4668 62.8553 21.5557 63.2518 21.7334C63.6482 21.9111 63.9764 22.1618 64.2361 22.4854C64.5005 22.8044 64.6964 23.1849 64.824 23.627C64.9562 24.069 65.0223 24.5566 65.0223 25.0898V25.7939H59.3074V24.6113H63.3953V24.4814C63.3862 24.1852 63.327 23.9072 63.2176 23.6475C63.1128 23.3877 62.951 23.1781 62.7322 23.0186C62.5135 22.859 62.2218 22.7793 61.8572 22.7793C61.5838 22.7793 61.34 22.8385 61.1258 22.957C60.9161 23.071 60.7407 23.2373 60.5994 23.4561C60.4581 23.6748 60.3488 23.9391 60.2713 24.249C60.1984 24.5544 60.1619 24.8984 60.1619 25.2812V25.5547C60.1619 25.8783 60.2052 26.179 60.2918 26.457C60.3829 26.7305 60.5151 26.9697 60.6883 27.1748C60.8615 27.3799 61.0711 27.5417 61.3172 27.6602C61.5633 27.7741 61.8436 27.8311 62.158 27.8311C62.5545 27.8311 62.9077 27.7513 63.2176 27.5918C63.5275 27.4323 63.7964 27.2067 64.0242 26.915L64.8924 27.7559C64.7329 27.9883 64.5255 28.2116 64.2703 28.4258C64.0151 28.6354 63.7029 28.8063 63.3338 28.9385C62.9692 29.0706 62.5454 29.1367 62.0623 29.1367ZM68.0412 23.1826V29H66.3937V21.6035H67.9455L68.0412 23.1826ZM67.7473 25.0283L67.2141 25.0215C67.2186 24.4974 67.2915 24.0166 67.4328 23.5791C67.5786 23.1416 67.7792 22.7656 68.0344 22.4512C68.2941 22.1367 68.604 21.8952 68.9641 21.7266C69.3241 21.5534 69.7251 21.4668 70.1672 21.4668C70.5227 21.4668 70.8439 21.5169 71.1311 21.6172C71.4227 21.7129 71.6711 21.8701 71.8762 22.0889C72.0858 22.3076 72.2453 22.5924 72.3547 22.9434C72.4641 23.2897 72.5187 23.7158 72.5187 24.2217V29H70.8645V24.2148C70.8645 23.8594 70.812 23.5791 70.7072 23.374C70.607 23.1644 70.4589 23.0163 70.2629 22.9297C70.0715 22.8385 69.8322 22.793 69.5451 22.793C69.2626 22.793 69.0096 22.8522 68.7863 22.9707C68.563 23.0892 68.3739 23.251 68.2189 23.4561C68.0686 23.6611 67.9523 23.8981 67.8703 24.167C67.7883 24.4359 67.7473 24.723 67.7473 25.0283ZM78.8121 27.4688V18.5H80.4664V29H78.9693L78.8121 27.4688ZM73.9996 25.3838V25.2402C73.9996 24.6797 74.0657 24.1693 74.1979 23.709C74.33 23.2441 74.5214 22.8454 74.7721 22.5127C75.0227 22.1755 75.3281 21.918 75.6881 21.7402C76.0481 21.5579 76.4537 21.4668 76.9049 21.4668C77.3515 21.4668 77.7434 21.5534 78.0807 21.7266C78.4179 21.8997 78.705 22.1481 78.942 22.4717C79.179 22.7907 79.3681 23.1735 79.5094 23.6201C79.6507 24.0622 79.7509 24.5544 79.8102 25.0967V25.5547C79.7509 26.0833 79.6507 26.5664 79.5094 27.0039C79.3681 27.4414 79.179 27.8197 78.942 28.1387C78.705 28.4577 78.4156 28.7038 78.0738 28.877C77.7366 29.0501 77.3424 29.1367 76.8912 29.1367C76.4446 29.1367 76.0413 29.0433 75.6812 28.8564C75.3258 28.6696 75.0227 28.4076 74.7721 28.0703C74.5214 27.7331 74.33 27.3366 74.1979 26.8809C74.0657 26.4206 73.9996 25.9215 73.9996 25.3838ZM75.6471 25.2402V25.3838C75.6471 25.721 75.6767 26.0355 75.7359 26.3271C75.7997 26.6188 75.8977 26.8763 76.0299 27.0996C76.162 27.3184 76.3329 27.4915 76.5426 27.6191C76.7568 27.7422 77.012 27.8037 77.3082 27.8037C77.6819 27.8037 77.9895 27.7217 78.2311 27.5576C78.4726 27.3936 78.6617 27.1725 78.7984 26.8945C78.9397 26.612 79.0354 26.2975 79.0855 25.9512V24.7139C79.0582 24.445 79.0012 24.1943 78.9146 23.9619C78.8326 23.7295 78.721 23.5267 78.5797 23.3535C78.4384 23.1758 78.263 23.0391 78.0533 22.9434C77.8482 22.8431 77.6044 22.793 77.3219 22.793C77.0211 22.793 76.7659 22.8568 76.5562 22.9844C76.3466 23.112 76.1734 23.2874 76.0367 23.5107C75.9046 23.734 75.8066 23.9938 75.7428 24.29C75.679 24.5863 75.6471 24.903 75.6471 25.2402ZM86.459 27.5166V23.9893C86.459 23.7249 86.4111 23.4971 86.3154 23.3057C86.2197 23.1143 86.0739 22.9661 85.8779 22.8613C85.6865 22.7565 85.445 22.7041 85.1533 22.7041C84.8844 22.7041 84.652 22.7497 84.4561 22.8408C84.2601 22.932 84.1074 23.055 83.998 23.21C83.8887 23.3649 83.834 23.5404 83.834 23.7363H82.1934C82.1934 23.4447 82.264 23.1621 82.4053 22.8887C82.5465 22.6152 82.7516 22.3714 83.0205 22.1572C83.2894 21.943 83.6107 21.7744 83.9844 21.6514C84.3581 21.5283 84.7773 21.4668 85.2422 21.4668C85.7982 21.4668 86.2904 21.5602 86.7188 21.7471C87.1517 21.9339 87.4912 22.2165 87.7373 22.5947C87.988 22.9684 88.1133 23.4378 88.1133 24.0029V27.291C88.1133 27.6283 88.1361 27.9313 88.1816 28.2002C88.2318 28.4645 88.3024 28.6947 88.3936 28.8906V29H86.7051C86.6276 28.8223 86.5661 28.5967 86.5205 28.3232C86.4795 28.0452 86.459 27.7764 86.459 27.5166ZM86.6982 24.502L86.7119 25.5205H85.5293C85.224 25.5205 84.9551 25.5501 84.7227 25.6094C84.4902 25.6641 84.2965 25.7461 84.1416 25.8555C83.9867 25.9648 83.8704 26.097 83.793 26.252C83.7155 26.4069 83.6768 26.5824 83.6768 26.7783C83.6768 26.9743 83.7223 27.1543 83.8135 27.3184C83.9046 27.4779 84.0368 27.6032 84.21 27.6943C84.3877 27.7855 84.6019 27.8311 84.8525 27.8311C85.1898 27.8311 85.4837 27.7627 85.7344 27.626C85.9896 27.4847 86.1901 27.3138 86.3359 27.1133C86.4818 26.9082 86.5592 26.7145 86.5684 26.5322L87.1016 27.2637C87.0469 27.4505 86.9535 27.651 86.8213 27.8652C86.6891 28.0794 86.516 28.2845 86.3018 28.4805C86.0921 28.6719 85.8392 28.8291 85.543 28.9521C85.2513 29.0752 84.9141 29.1367 84.5312 29.1367C84.0482 29.1367 83.6175 29.041 83.2393 28.8496C82.861 28.6536 82.5648 28.3916 82.3506 28.0635C82.1364 27.7308 82.0293 27.3548 82.0293 26.9355C82.0293 26.5436 82.1022 26.1973 82.248 25.8965C82.3984 25.5911 82.6172 25.3359 82.9043 25.1309C83.196 24.9258 83.5514 24.7708 83.9707 24.666C84.39 24.5566 84.8685 24.502 85.4062 24.502H86.6982ZM94.0854 26.9971C94.0854 26.833 94.0443 26.6849 93.9623 26.5527C93.8803 26.416 93.723 26.293 93.4906 26.1836C93.2628 26.0742 92.9255 25.974 92.4789 25.8828C92.087 25.7962 91.727 25.6937 91.3988 25.5752C91.0753 25.4521 90.7973 25.304 90.5648 25.1309C90.3324 24.9577 90.1524 24.7526 90.0248 24.5156C89.8972 24.2786 89.8334 24.0052 89.8334 23.6953C89.8334 23.3945 89.8995 23.1097 90.0316 22.8408C90.1638 22.5719 90.3529 22.335 90.599 22.1299C90.8451 21.9248 91.1436 21.763 91.4945 21.6445C91.85 21.526 92.2465 21.4668 92.684 21.4668C93.3038 21.4668 93.8347 21.5716 94.2768 21.7812C94.7234 21.9863 95.0652 22.2666 95.3021 22.6221C95.5391 22.973 95.6576 23.3695 95.6576 23.8115H94.0102C94.0102 23.6156 93.96 23.4333 93.8598 23.2646C93.7641 23.0915 93.6182 22.9525 93.4223 22.8477C93.2263 22.7383 92.9802 22.6836 92.684 22.6836C92.4014 22.6836 92.1667 22.7292 91.9799 22.8203C91.7976 22.9069 91.6609 23.0208 91.5697 23.1621C91.4831 23.3034 91.4398 23.4583 91.4398 23.627C91.4398 23.75 91.4626 23.8617 91.5082 23.9619C91.5583 24.0576 91.6404 24.1465 91.7543 24.2285C91.8682 24.306 92.0232 24.3789 92.2191 24.4473C92.4197 24.5156 92.6703 24.5817 92.9711 24.6455C93.5362 24.764 94.0215 24.9167 94.4271 25.1035C94.8373 25.2858 95.1518 25.5228 95.3705 25.8145C95.5893 26.1016 95.6986 26.4661 95.6986 26.9082C95.6986 27.2363 95.628 27.5371 95.4867 27.8105C95.35 28.0794 95.1495 28.3141 94.8852 28.5146C94.6208 28.7106 94.3041 28.8633 93.935 28.9727C93.5704 29.082 93.1602 29.1367 92.7045 29.1367C92.0346 29.1367 91.4672 29.0182 91.0023 28.7812C90.5375 28.5397 90.1843 28.2321 89.9428 27.8584C89.7058 27.4801 89.5873 27.0882 89.5873 26.6826H91.1801C91.1983 26.988 91.2826 27.2318 91.433 27.4141C91.588 27.5918 91.7794 27.7217 92.0072 27.8037C92.2396 27.8812 92.4789 27.9199 92.725 27.9199C93.0212 27.9199 93.2696 27.8812 93.4701 27.8037C93.6706 27.7217 93.8233 27.6123 93.9281 27.4756C94.0329 27.3343 94.0854 27.1748 94.0854 26.9971Z" fill="#FFD9DD"/>
</g>
<defs>
<clipPath id="clip0_17_1312">
<rect y="4" width="113" height="40" rx="20" fill="white"/>
</clipPath>
</defs>
</svg>
