<svg width="116" height="48" viewBox="0 0 116 48" fill="none" xmlns="http://www.w3.org/2000/svg">
<g clip-path="url(#clip0_17_1284)">
<rect y="4" width="116" height="40" rx="20" fill="#72333F"/>
<path d="M26 24C25.0834 24 24.2987 23.6736 23.6459 23.0208C22.9931 22.3681 22.6667 21.5833 22.6667 20.6667C22.6667 19.75 22.9931 18.9653 23.6459 18.3125C24.2987 17.6597 25.0834 17.3333 26 17.3333C26.9167 17.3333 27.7014 17.6597 28.3542 18.3125C29.007 18.9653 29.3334 19.75 29.3334 20.6667C29.3334 21.5833 29.007 22.3681 28.3542 23.0208C27.7014 23.6736 26.9167 24 26 24ZM19.3334 30.6667V28.3333C19.3334 27.8611 19.4549 27.4271 19.698 27.0313C19.941 26.6354 20.2639 26.3333 20.6667 26.125C21.5278 25.6944 22.4028 25.3715 23.2917 25.1563C24.1806 24.941 25.0834 24.8333 26 24.8333C26.9167 24.8333 27.8195 24.941 28.7084 25.1563C29.5973 25.3715 30.4723 25.6944 31.3334 26.125C31.7362 26.3333 32.0591 26.6354 32.3021 27.0313C32.5452 27.4271 32.6667 27.8611 32.6667 28.3333V30.6667H19.3334ZM21 29H31V28.3333C31 28.1806 30.9618 28.0417 30.8855 27.9167C30.8091 27.7917 30.7084 27.6944 30.5834 27.625C29.8334 27.25 29.0764 26.9688 28.3125 26.7813C27.5487 26.5938 26.7778 26.5 26 26.5C25.2223 26.5 24.4514 26.5938 23.6875 26.7813C22.9237 26.9688 22.1667 27.25 21.4167 27.625C21.2917 27.6944 21.191 27.7917 21.1146 27.9167C21.0382 28.0417 21 28.1806 21 28.3333V29ZM26 22.3333C26.4584 22.3333 26.8507 22.1701 27.1771 21.8438C27.5035 21.5174 27.6667 21.125 27.6667 20.6667C27.6667 20.2083 27.5035 19.816 27.1771 19.4896C26.8507 19.1632 26.4584 19 26 19C25.5417 19 25.1493 19.1632 24.823 19.4896C24.4966 19.816 24.3334 20.2083 24.3334 20.6667C24.3334 21.125 24.4966 21.5174 24.823 21.8438C25.1493 22.1701 25.5417 22.3333 26 22.3333Z" fill="#FFD9DD"/>
<path d="M50.5967 19.0469H52.3057V25.6982C52.3057 26.4548 52.1416 27.0882 51.8135 27.5986C51.4854 28.109 51.0387 28.4941 50.4736 28.7539C49.9131 29.0091 49.2865 29.1367 48.5938 29.1367C47.8783 29.1367 47.2402 29.0091 46.6797 28.7539C46.1191 28.4941 45.6771 28.109 45.3535 27.5986C45.0345 27.0882 44.875 26.4548 44.875 25.6982V19.0469H46.584V25.6982C46.584 26.1768 46.666 26.571 46.8301 26.8809C46.9941 27.1862 47.2266 27.4118 47.5273 27.5576C47.8281 27.7035 48.1836 27.7764 48.5938 27.7764C49.0039 27.7764 49.3571 27.7035 49.6533 27.5576C49.9541 27.4118 50.1865 27.1862 50.3506 26.8809C50.5146 26.571 50.5967 26.1768 50.5967 25.6982V19.0469ZM58.2572 26.9971C58.2572 26.833 58.2162 26.6849 58.1342 26.5527C58.0521 26.416 57.8949 26.293 57.6625 26.1836C57.4346 26.0742 57.0974 25.974 56.6508 25.8828C56.2589 25.7962 55.8988 25.6937 55.5707 25.5752C55.2471 25.4521 54.9691 25.304 54.7367 25.1309C54.5043 24.9577 54.3243 24.7526 54.1967 24.5156C54.0691 24.2786 54.0053 24.0052 54.0053 23.6953C54.0053 23.3945 54.0714 23.1097 54.2035 22.8408C54.3357 22.5719 54.5248 22.335 54.7709 22.1299C55.017 21.9248 55.3155 21.763 55.6664 21.6445C56.0219 21.526 56.4184 21.4668 56.8559 21.4668C57.4757 21.4668 58.0066 21.5716 58.4486 21.7812C58.8952 21.9863 59.237 22.2666 59.474 22.6221C59.711 22.973 59.8295 23.3695 59.8295 23.8115H58.182C58.182 23.6156 58.1319 23.4333 58.0316 23.2646C57.9359 23.0915 57.7901 22.9525 57.5941 22.8477C57.3982 22.7383 57.1521 22.6836 56.8559 22.6836C56.5733 22.6836 56.3386 22.7292 56.1518 22.8203C55.9695 22.9069 55.8327 23.0208 55.7416 23.1621C55.655 23.3034 55.6117 23.4583 55.6117 23.627C55.6117 23.75 55.6345 23.8617 55.6801 23.9619C55.7302 24.0576 55.8122 24.1465 55.9262 24.2285C56.0401 24.306 56.1951 24.3789 56.391 24.4473C56.5915 24.5156 56.8422 24.5817 57.143 24.6455C57.7081 24.764 58.1934 24.9167 58.599 25.1035C59.0092 25.2858 59.3236 25.5228 59.5424 25.8145C59.7611 26.1016 59.8705 26.4661 59.8705 26.9082C59.8705 27.2363 59.7999 27.5371 59.6586 27.8105C59.5219 28.0794 59.3214 28.3141 59.057 28.5146C58.7927 28.7106 58.476 28.8633 58.1068 28.9727C57.7423 29.082 57.3321 29.1367 56.8764 29.1367C56.2064 29.1367 55.6391 29.0182 55.1742 28.7812C54.7094 28.5397 54.3562 28.2321 54.1146 27.8584C53.8777 27.4801 53.7592 27.0882 53.7592 26.6826H55.352C55.3702 26.988 55.4545 27.2318 55.6049 27.4141C55.7598 27.5918 55.9512 27.7217 56.1791 27.8037C56.4115 27.8812 56.6508 27.9199 56.8969 27.9199C57.1931 27.9199 57.4415 27.8812 57.642 27.8037C57.8425 27.7217 57.9952 27.6123 58.1 27.4756C58.2048 27.3343 58.2572 27.1748 58.2572 26.9971ZM65.8631 27.2568V21.6035H67.5174V29H65.9588L65.8631 27.2568ZM66.0955 25.7188L66.6492 25.7051C66.6492 26.2018 66.5945 26.6598 66.4852 27.0791C66.3758 27.4938 66.2072 27.8561 65.9793 28.166C65.7514 28.4714 65.4598 28.7106 65.1043 28.8838C64.7488 29.0524 64.3227 29.1367 63.826 29.1367C63.466 29.1367 63.1355 29.0843 62.8348 28.9795C62.534 28.8747 62.2742 28.7129 62.0555 28.4941C61.8413 28.2754 61.6749 27.9906 61.5564 27.6396C61.438 27.2887 61.3787 26.8695 61.3787 26.3818V21.6035H63.0262V26.3955C63.0262 26.6644 63.0581 26.89 63.1219 27.0723C63.1857 27.25 63.2723 27.3936 63.3816 27.5029C63.491 27.6123 63.6186 27.6898 63.7645 27.7354C63.9103 27.7809 64.0652 27.8037 64.2293 27.8037C64.6987 27.8037 65.0678 27.7126 65.3367 27.5303C65.6102 27.3434 65.8038 27.0928 65.9178 26.7783C66.0363 26.4639 66.0955 26.1107 66.0955 25.7188ZM73.4758 27.5166V23.9893C73.4758 23.7249 73.4279 23.4971 73.3322 23.3057C73.2365 23.1143 73.0907 22.9661 72.8947 22.8613C72.7033 22.7565 72.4618 22.7041 72.1701 22.7041C71.9012 22.7041 71.6688 22.7497 71.4729 22.8408C71.2769 22.932 71.1242 23.055 71.0148 23.21C70.9055 23.3649 70.8508 23.5404 70.8508 23.7363H69.2102C69.2102 23.4447 69.2808 23.1621 69.4221 22.8887C69.5633 22.6152 69.7684 22.3714 70.0373 22.1572C70.3062 21.943 70.6275 21.7744 71.0012 21.6514C71.3749 21.5283 71.7941 21.4668 72.259 21.4668C72.815 21.4668 73.3072 21.5602 73.7355 21.7471C74.1685 21.9339 74.508 22.2165 74.7541 22.5947C75.0048 22.9684 75.1301 23.4378 75.1301 24.0029V27.291C75.1301 27.6283 75.1529 27.9313 75.1984 28.2002C75.2486 28.4645 75.3192 28.6947 75.4104 28.8906V29H73.7219C73.6444 28.8223 73.5829 28.5967 73.5373 28.3232C73.4963 28.0452 73.4758 27.7764 73.4758 27.5166ZM73.715 24.502L73.7287 25.5205H72.5461C72.2408 25.5205 71.9719 25.5501 71.7395 25.6094C71.507 25.6641 71.3133 25.7461 71.1584 25.8555C71.0034 25.9648 70.8872 26.097 70.8098 26.252C70.7323 26.4069 70.6936 26.5824 70.6936 26.7783C70.6936 26.9743 70.7391 27.1543 70.8303 27.3184C70.9214 27.4779 71.0536 27.6032 71.2268 27.6943C71.4045 27.7855 71.6187 27.8311 71.8693 27.8311C72.2066 27.8311 72.5005 27.7627 72.7512 27.626C73.0064 27.4847 73.2069 27.3138 73.3527 27.1133C73.4986 26.9082 73.576 26.7145 73.5852 26.5322L74.1184 27.2637C74.0637 27.4505 73.9702 27.651 73.8381 27.8652C73.7059 28.0794 73.5327 28.2845 73.3186 28.4805C73.1089 28.6719 72.856 28.8291 72.5598 28.9521C72.2681 29.0752 71.9309 29.1367 71.548 29.1367C71.065 29.1367 70.6343 29.041 70.2561 28.8496C69.8778 28.6536 69.5816 28.3916 69.3674 28.0635C69.1532 27.7308 69.0461 27.3548 69.0461 26.9355C69.0461 26.5436 69.119 26.1973 69.2648 25.8965C69.4152 25.5911 69.634 25.3359 69.9211 25.1309C70.2128 24.9258 70.5682 24.7708 70.9875 24.666C71.4068 24.5566 71.8853 24.502 72.423 24.502H73.715ZM78.607 23.0117V29H76.9596V21.6035H78.5318L78.607 23.0117ZM80.8697 21.5557L80.8561 23.0869C80.7558 23.0687 80.6464 23.055 80.5279 23.0459C80.414 23.0368 80.3001 23.0322 80.1861 23.0322C79.9036 23.0322 79.6552 23.0732 79.441 23.1553C79.2268 23.2327 79.0468 23.3467 78.901 23.4971C78.7597 23.6429 78.6503 23.8206 78.5729 24.0303C78.4954 24.2399 78.4498 24.4746 78.4361 24.7344L78.0602 24.7617C78.0602 24.2969 78.1057 23.8662 78.1969 23.4697C78.288 23.0732 78.4247 22.7246 78.607 22.4238C78.7939 22.123 79.0263 21.8883 79.3043 21.7197C79.5869 21.5511 79.9127 21.4668 80.2818 21.4668C80.3821 21.4668 80.4892 21.4759 80.6031 21.4941C80.7216 21.5124 80.8105 21.5329 80.8697 21.5557ZM83.7656 21.6035V29H82.1113V21.6035H83.7656ZM82.002 19.6621C82.002 19.4115 82.084 19.2041 82.248 19.04C82.4167 18.8714 82.6491 18.7871 82.9453 18.7871C83.237 18.7871 83.4671 18.8714 83.6357 19.04C83.8044 19.2041 83.8887 19.4115 83.8887 19.6621C83.8887 19.9082 83.8044 20.1133 83.6357 20.2773C83.4671 20.4414 83.237 20.5234 82.9453 20.5234C82.6491 20.5234 82.4167 20.4414 82.248 20.2773C82.084 20.1133 82.002 19.9082 82.002 19.6621ZM89.8402 27.5166V23.9893C89.8402 23.7249 89.7924 23.4971 89.6967 23.3057C89.601 23.1143 89.4551 22.9661 89.2592 22.8613C89.0678 22.7565 88.8262 22.7041 88.5346 22.7041C88.2657 22.7041 88.0333 22.7497 87.8373 22.8408C87.6413 22.932 87.4887 23.055 87.3793 23.21C87.2699 23.3649 87.2152 23.5404 87.2152 23.7363H85.5746C85.5746 23.4447 85.6452 23.1621 85.7865 22.8887C85.9278 22.6152 86.1329 22.3714 86.4018 22.1572C86.6706 21.943 86.9919 21.7744 87.3656 21.6514C87.7393 21.5283 88.1586 21.4668 88.6234 21.4668C89.1794 21.4668 89.6716 21.5602 90.1 21.7471C90.5329 21.9339 90.8725 22.2165 91.1186 22.5947C91.3692 22.9684 91.4945 23.4378 91.4945 24.0029V27.291C91.4945 27.6283 91.5173 27.9313 91.5629 28.2002C91.613 28.4645 91.6837 28.6947 91.7748 28.8906V29H90.0863C90.0089 28.8223 89.9473 28.5967 89.9018 28.3232C89.8607 28.0452 89.8402 27.7764 89.8402 27.5166ZM90.0795 24.502L90.0932 25.5205H88.9105C88.6052 25.5205 88.3363 25.5501 88.1039 25.6094C87.8715 25.6641 87.6778 25.7461 87.5229 25.8555C87.3679 25.9648 87.2517 26.097 87.1742 26.252C87.0967 26.4069 87.058 26.5824 87.058 26.7783C87.058 26.9743 87.1036 27.1543 87.1947 27.3184C87.2859 27.4779 87.418 27.6032 87.5912 27.6943C87.7689 27.7855 87.9831 27.8311 88.2338 27.8311C88.571 27.8311 88.865 27.7627 89.1156 27.626C89.3708 27.4847 89.5714 27.3138 89.7172 27.1133C89.863 26.9082 89.9405 26.7145 89.9496 26.5322L90.4828 27.2637C90.4281 27.4505 90.3347 27.651 90.2025 27.8652C90.0704 28.0794 89.8972 28.2845 89.683 28.4805C89.4734 28.6719 89.2204 28.8291 88.9242 28.9521C88.6326 29.0752 88.2953 29.1367 87.9125 29.1367C87.4294 29.1367 86.9988 29.041 86.6205 28.8496C86.2423 28.6536 85.946 28.3916 85.7318 28.0635C85.5176 27.7308 85.4105 27.3548 85.4105 26.9355C85.4105 26.5436 85.4835 26.1973 85.6293 25.8965C85.7797 25.5911 85.9984 25.3359 86.2855 25.1309C86.5772 24.9258 86.9327 24.7708 87.352 24.666C87.7712 24.5566 88.2497 24.502 88.7875 24.502H90.0795ZM97.4666 26.9971C97.4666 26.833 97.4256 26.6849 97.3436 26.5527C97.2615 26.416 97.1043 26.293 96.8719 26.1836C96.644 26.0742 96.3068 25.974 95.8602 25.8828C95.4682 25.7962 95.1082 25.6937 94.7801 25.5752C94.4565 25.4521 94.1785 25.304 93.9461 25.1309C93.7137 24.9577 93.5337 24.7526 93.4061 24.5156C93.2785 24.2786 93.2146 24.0052 93.2146 23.6953C93.2146 23.3945 93.2807 23.1097 93.4129 22.8408C93.5451 22.5719 93.7342 22.335 93.9803 22.1299C94.2264 21.9248 94.5249 21.763 94.8758 21.6445C95.2313 21.526 95.6277 21.4668 96.0652 21.4668C96.685 21.4668 97.216 21.5716 97.658 21.7812C98.1046 21.9863 98.4464 22.2666 98.6834 22.6221C98.9204 22.973 99.0389 23.3695 99.0389 23.8115H97.3914C97.3914 23.6156 97.3413 23.4333 97.241 23.2646C97.1453 23.0915 96.9995 22.9525 96.8035 22.8477C96.6076 22.7383 96.3615 22.6836 96.0652 22.6836C95.7827 22.6836 95.548 22.7292 95.3611 22.8203C95.1788 22.9069 95.0421 23.0208 94.951 23.1621C94.8644 23.3034 94.8211 23.4583 94.8211 23.627C94.8211 23.75 94.8439 23.8617 94.8895 23.9619C94.9396 24.0576 95.0216 24.1465 95.1355 24.2285C95.2495 24.306 95.4044 24.3789 95.6004 24.4473C95.8009 24.5156 96.0516 24.5817 96.3523 24.6455C96.9174 24.764 97.4028 24.9167 97.8084 25.1035C98.2186 25.2858 98.533 25.5228 98.7518 25.8145C98.9705 26.1016 99.0799 26.4661 99.0799 26.9082C99.0799 27.2363 99.0092 27.5371 98.868 27.8105C98.7313 28.0794 98.5307 28.3141 98.2664 28.5146C98.0021 28.7106 97.6854 28.8633 97.3162 28.9727C96.9516 29.082 96.5415 29.1367 96.0857 29.1367C95.4158 29.1367 94.8484 29.0182 94.3836 28.7812C93.9188 28.5397 93.5656 28.2321 93.324 27.8584C93.087 27.4801 92.9686 27.0882 92.9686 26.6826H94.5613C94.5796 26.988 94.6639 27.2318 94.8143 27.4141C94.9692 27.5918 95.1606 27.7217 95.3885 27.8037C95.6209 27.8812 95.8602 27.9199 96.1063 27.9199C96.4025 27.9199 96.6508 27.8812 96.8514 27.8037C97.0519 27.7217 97.2046 27.6123 97.3094 27.4756C97.4142 27.3343 97.4666 27.1748 97.4666 26.9971Z" fill="#FFD9DD"/>
</g>
<defs>
<clipPath id="clip0_17_1284">
<rect y="4" width="116" height="40" rx="20" fill="white"/>
</clipPath>
</defs>
</svg>
