<svg width="104" height="48" viewBox="0 0 104 48" fill="none" xmlns="http://www.w3.org/2000/svg">
<g clip-path="url(#clip0_17_1294)">
<rect y="4" width="104" height="40" rx="20" fill="#72333F"/>
<path d="M26 29L29.3333 25.6667L28.1667 24.5L26.8333 25.8333V22.3333H25.1667V25.8333L23.8333 24.5L22.6667 25.6667L26 29ZM20.1667 20.6667V29.8333H31.8333V20.6667H20.1667ZM20.1667 31.5C19.7083 31.5 19.3125 31.3403 18.9792 31.0208C18.6597 30.6875 18.5 30.2917 18.5 29.8333V19.4375C18.5 19.2431 18.5278 19.0556 18.5833 18.875C18.6528 18.6944 18.75 18.5278 18.875 18.375L19.9167 17.1042C20.0694 16.9097 20.2569 16.7639 20.4792 16.6667C20.7153 16.5556 20.9583 16.5 21.2083 16.5H30.7917C31.0417 16.5 31.2778 16.5556 31.5 16.6667C31.7361 16.7639 31.9306 16.9097 32.0833 17.1042L33.125 18.375C33.25 18.5278 33.3403 18.6944 33.3958 18.875C33.4653 19.0556 33.5 19.2431 33.5 19.4375V29.8333C33.5 30.2917 33.3333 30.6875 33 31.0208C32.6806 31.3403 32.2917 31.5 31.8333 31.5H20.1667ZM20.5 19H31.5L30.7917 18.1667H21.2083L20.5 19Z" fill="#F0DEDF"/>
<path d="M48.4229 27.1816L51.041 19.0469H52.9346L49.3662 29H48.0879L48.4229 27.1816ZM46.0029 19.0469L48.6006 27.1816L48.9561 29H47.6709L44.1162 19.0469H46.0029ZM56.9447 29.1367C56.3979 29.1367 55.9034 29.0479 55.4613 28.8701C55.0238 28.6878 54.6501 28.4349 54.3402 28.1113C54.0349 27.7878 53.8002 27.4072 53.6361 26.9697C53.4721 26.5322 53.39 26.0605 53.39 25.5547V25.2812C53.39 24.7025 53.4743 24.1784 53.643 23.709C53.8116 23.2396 54.0463 22.8385 54.3471 22.5059C54.6479 22.1686 55.0033 21.9111 55.4135 21.7334C55.8236 21.5557 56.268 21.4668 56.7465 21.4668C57.2751 21.4668 57.7377 21.5557 58.1342 21.7334C58.5307 21.9111 58.8588 22.1618 59.1186 22.4854C59.3829 22.8044 59.5788 23.1849 59.7064 23.627C59.8386 24.069 59.9047 24.5566 59.9047 25.0898V25.7939H54.1898V24.6113H58.2777V24.4814C58.2686 24.1852 58.2094 23.9072 58.1 23.6475C57.9952 23.3877 57.8334 23.1781 57.6146 23.0186C57.3959 22.859 57.1042 22.7793 56.7396 22.7793C56.4662 22.7793 56.2224 22.8385 56.0082 22.957C55.7986 23.071 55.6231 23.2373 55.4818 23.4561C55.3406 23.6748 55.2312 23.9391 55.1537 24.249C55.0808 24.5544 55.0443 24.8984 55.0443 25.2812V25.5547C55.0443 25.8783 55.0876 26.179 55.1742 26.457C55.2654 26.7305 55.3975 26.9697 55.5707 27.1748C55.7439 27.3799 55.9535 27.5417 56.1996 27.6602C56.4457 27.7741 56.726 27.8311 57.0404 27.8311C57.4369 27.8311 57.7901 27.7513 58.1 27.5918C58.4099 27.4323 58.6788 27.2067 58.9066 26.915L59.7748 27.7559C59.6153 27.9883 59.4079 28.2116 59.1527 28.4258C58.8975 28.6354 58.5854 28.8063 58.2162 28.9385C57.8516 29.0706 57.4278 29.1367 56.9447 29.1367ZM62.9236 23.1826V29H61.2762V21.6035H62.8279L62.9236 23.1826ZM62.6297 25.0283L62.0965 25.0215C62.101 24.4974 62.174 24.0166 62.3152 23.5791C62.4611 23.1416 62.6616 22.7656 62.9168 22.4512C63.1766 22.1367 63.4865 21.8952 63.8465 21.7266C64.2065 21.5534 64.6076 21.4668 65.0496 21.4668C65.4051 21.4668 65.7264 21.5169 66.0135 21.6172C66.3051 21.7129 66.5535 21.8701 66.7586 22.0889C66.9682 22.3076 67.1277 22.5924 67.2371 22.9434C67.3465 23.2897 67.4012 23.7158 67.4012 24.2217V29H65.7469V24.2148C65.7469 23.8594 65.6945 23.5791 65.5896 23.374C65.4894 23.1644 65.3413 23.0163 65.1453 22.9297C64.9539 22.8385 64.7146 22.793 64.4275 22.793C64.145 22.793 63.8921 22.8522 63.6688 22.9707C63.4454 23.0892 63.2563 23.251 63.1014 23.4561C62.951 23.6611 62.8348 23.8981 62.7527 24.167C62.6707 24.4359 62.6297 24.723 62.6297 25.0283ZM72.5734 21.6035V22.8066H68.4035V21.6035H72.5734ZM69.6066 19.792H71.2541V26.9561C71.2541 27.1839 71.286 27.3594 71.3498 27.4824C71.4182 27.6009 71.5116 27.6807 71.6301 27.7217C71.7486 27.7627 71.8876 27.7832 72.0471 27.7832C72.161 27.7832 72.2704 27.7764 72.3752 27.7627C72.48 27.749 72.5643 27.7354 72.6281 27.7217L72.635 28.9795C72.4982 29.0205 72.3387 29.057 72.1564 29.0889C71.9787 29.1208 71.7736 29.1367 71.5412 29.1367C71.163 29.1367 70.828 29.0706 70.5363 28.9385C70.2447 28.8018 70.0168 28.5807 69.8527 28.2754C69.6887 27.9701 69.6066 27.5645 69.6066 27.0586V19.792ZM78.1148 27.5166V23.9893C78.1148 23.7249 78.067 23.4971 77.9713 23.3057C77.8756 23.1143 77.7298 22.9661 77.5338 22.8613C77.3424 22.7565 77.1008 22.7041 76.8092 22.7041C76.5403 22.7041 76.3079 22.7497 76.1119 22.8408C75.916 22.932 75.7633 23.055 75.6539 23.21C75.5445 23.3649 75.4898 23.5404 75.4898 23.7363H73.8492C73.8492 23.4447 73.9199 23.1621 74.0611 22.8887C74.2024 22.6152 74.4075 22.3714 74.6764 22.1572C74.9452 21.943 75.2665 21.7744 75.6402 21.6514C76.0139 21.5283 76.4332 21.4668 76.898 21.4668C77.454 21.4668 77.9462 21.5602 78.3746 21.7471C78.8076 21.9339 79.1471 22.2165 79.3932 22.5947C79.6438 22.9684 79.7691 23.4378 79.7691 24.0029V27.291C79.7691 27.6283 79.7919 27.9313 79.8375 28.2002C79.8876 28.4645 79.9583 28.6947 80.0494 28.8906V29H78.3609C78.2835 28.8223 78.2219 28.5967 78.1764 28.3232C78.1354 28.0452 78.1148 27.7764 78.1148 27.5166ZM78.3541 24.502L78.3678 25.5205H77.1852C76.8798 25.5205 76.6109 25.5501 76.3785 25.6094C76.1461 25.6641 75.9524 25.7461 75.7975 25.8555C75.6425 25.9648 75.5263 26.097 75.4488 26.252C75.3714 26.4069 75.3326 26.5824 75.3326 26.7783C75.3326 26.9743 75.3782 27.1543 75.4693 27.3184C75.5605 27.4779 75.6926 27.6032 75.8658 27.6943C76.0436 27.7855 76.2577 27.8311 76.5084 27.8311C76.8456 27.8311 77.1396 27.7627 77.3902 27.626C77.6454 27.4847 77.846 27.3138 77.9918 27.1133C78.1376 26.9082 78.2151 26.7145 78.2242 26.5322L78.7574 27.2637C78.7027 27.4505 78.6093 27.651 78.4771 27.8652C78.345 28.0794 78.1718 28.2845 77.9576 28.4805C77.748 28.6719 77.4951 28.8291 77.1988 28.9521C76.9072 29.0752 76.5699 29.1367 76.1871 29.1367C75.704 29.1367 75.2734 29.041 74.8951 28.8496C74.5169 28.6536 74.2206 28.3916 74.0064 28.0635C73.7923 27.7308 73.6852 27.3548 73.6852 26.9355C73.6852 26.5436 73.7581 26.1973 73.9039 25.8965C74.0543 25.5911 74.273 25.3359 74.5602 25.1309C74.8518 24.9258 75.2073 24.7708 75.6266 24.666C76.0458 24.5566 76.5243 24.502 77.0621 24.502H78.3541ZM85.7412 26.9971C85.7412 26.833 85.7002 26.6849 85.6182 26.5527C85.5361 26.416 85.3789 26.293 85.1465 26.1836C84.9186 26.0742 84.5814 25.974 84.1348 25.8828C83.7428 25.7962 83.3828 25.6937 83.0547 25.5752C82.7311 25.4521 82.4531 25.304 82.2207 25.1309C81.9883 24.9577 81.8083 24.7526 81.6807 24.5156C81.5531 24.2786 81.4893 24.0052 81.4893 23.6953C81.4893 23.3945 81.5553 23.1097 81.6875 22.8408C81.8197 22.5719 82.0088 22.335 82.2549 22.1299C82.501 21.9248 82.7995 21.763 83.1504 21.6445C83.5059 21.526 83.9023 21.4668 84.3398 21.4668C84.9596 21.4668 85.4906 21.5716 85.9326 21.7812C86.3792 21.9863 86.721 22.2666 86.958 22.6221C87.195 22.973 87.3135 23.3695 87.3135 23.8115H85.666C85.666 23.6156 85.6159 23.4333 85.5156 23.2646C85.4199 23.0915 85.2741 22.9525 85.0781 22.8477C84.8822 22.7383 84.6361 22.6836 84.3398 22.6836C84.0573 22.6836 83.8226 22.7292 83.6357 22.8203C83.4535 22.9069 83.3167 23.0208 83.2256 23.1621C83.139 23.3034 83.0957 23.4583 83.0957 23.627C83.0957 23.75 83.1185 23.8617 83.1641 23.9619C83.2142 24.0576 83.2962 24.1465 83.4102 24.2285C83.5241 24.306 83.679 24.3789 83.875 24.4473C84.0755 24.5156 84.3262 24.5817 84.627 24.6455C85.1921 24.764 85.6774 24.9167 86.083 25.1035C86.4932 25.2858 86.8076 25.5228 87.0264 25.8145C87.2451 26.1016 87.3545 26.4661 87.3545 26.9082C87.3545 27.2363 87.2839 27.5371 87.1426 27.8105C87.0059 28.0794 86.8053 28.3141 86.541 28.5146C86.2767 28.7106 85.96 28.8633 85.5908 28.9727C85.2262 29.082 84.8161 29.1367 84.3604 29.1367C83.6904 29.1367 83.123 29.0182 82.6582 28.7812C82.1934 28.5397 81.8402 28.2321 81.5986 27.8584C81.3617 27.4801 81.2432 27.0882 81.2432 26.6826H82.8359C82.8542 26.988 82.9385 27.2318 83.0889 27.4141C83.2438 27.5918 83.4352 27.7217 83.6631 27.8037C83.8955 27.8812 84.1348 27.9199 84.3809 27.9199C84.6771 27.9199 84.9255 27.8812 85.126 27.8037C85.3265 27.7217 85.4792 27.6123 85.584 27.4756C85.6888 27.3343 85.7412 27.1748 85.7412 26.9971Z" fill="#FFD9DD"/>
</g>
<defs>
<clipPath id="clip0_17_1294">
<rect y="4" width="104" height="40" rx="20" fill="white"/>
</clipPath>
</defs>
</svg>
